<?xml version="1.0" encoding="utf-8"?>
<!-- Generator: Adobe Illustrator 24.0.3, SVG Export Plug-In . SVG Version: 6.00 Build 0)  -->
<svg version="1.1" id="Ebene_1" xmlns="http://www.w3.org/2000/svg" xmlns:xlink="http://www.w3.org/1999/xlink" x="0px" y="0px"
	 viewBox="0 0 20 20" style="enable-background:new 0 0 20 20;" xml:space="preserve">
<style type="text/css">
	.st0{fill:#FF0000;}
</style>
<path class="st0" d="M5.32,11.28l-1.52,2.4c0,0-1.9-0.9-2.92-0.38c-1.02,0.52,1.76,1.64,1.85,1.68c0.09,0.05,0.36,2.68,0.36,2.68
	l2.51-2.09l0.26,1.07L5.58,18.3l0.76,0.21l1.42-2.66l0.19-0.96l1.47,3.52l1.21-2.23l0.71,1.19l0.81,0.71l1-2.02
	c0,0,6.19,0.62,6.19,0.21s-3.39-2.18-6.33-3.39l0.95-2.21l-0.69,0.12l-0.38-0.57l-0.97,1.66l-0.28-0.31l-0.05-0.97l-0.64,0.83
	c0,0-0.52-1.14-1.19-1.09c-0.66,0.05-1.95,0.83-3.7,2.35L5.32,11.28z"/>
</svg>
