<svg id="Ebene_1" data-name="Ebene 1" xmlns="http://www.w3.org/2000/svg" viewBox="0 0 35.38 15.68"><defs><style>.cls-1{fill:red;}</style></defs><title>castaspell</title><path class="cls-1" d="M17.39,18.82l-2.88,4.53s-3.59-1.7-5.53-.71,3.33,3.1,3.51,3.18.67,5.08.67,5.08L17.92,27l.5,2-.54,3.14,1.44.41,2.69-5,.36-1.82,2.79,6.67,2.29-4.22,1.35,2.24,1.52,1.35,1.89-3.82s11.73,1.17,11.73.41-6.43-4.14-12-6.43l1.8-4.18-1.3.23-.72-1.08L29.87,20l-.53-.58-.09-1.84L28,19.13S27,17,25.79,17.06s-3.69,1.58-7,4.45Z" transform="translate(-8.56 -16.84)"/></svg>