<svg id="Ebene_1" data-name="Ebene 1" xmlns="http://www.w3.org/2000/svg" viewBox="0 0 33.38 20.18"><defs><style>.cls-1{fill:lime;}</style></defs><title>cloud</title><path class="cls-1" d="M23.93,20.88a3.3,3.3,0,0,0-3.67-.81c-2.05.95-2.19-.77-3.91.81s-2.62-.05-4.14,3.33-.62,3.24-.58,3.53S9.06,31,10.35,32.27l1.28,1.24s-.21,6.33,5.33,3.9c0,0,4.92,3.43,7,1.91s2.95-1.91,3.38-1.43,1.24,2.45,3.48,1.82a43.93,43.93,0,0,1,5.77-1.11c1.09-.14,3.33-1.23,3.33-2.28,0,0,6.91-3.39,1.24-6.2,0,0,2.62-6.05-4-4.95,0,0-1.53-6.91-6.63-2.34C30.5,22.83,30.7,17.26,23.93,20.88Z" transform="translate(-9.99 -19.65)"/></svg>