<?xml version="1.0" encoding="utf-8"?>
<!-- Generator: Adobe Illustrator 24.0.3, SVG Export Plug-In . SVG Version: 6.00 Build 0)  -->
<svg version="1.1" id="Ebene_1" xmlns="http://www.w3.org/2000/svg" xmlns:xlink="http://www.w3.org/1999/xlink" x="0px" y="0px"
	 viewBox="0 0 20 20" style="enable-background:new 0 0 20 20;" xml:space="preserve">
<style type="text/css">
	.st0{fill:#00FF00;}
</style>
<path class="st0" d="M8.28,5.32c0,0-0.92-1.01-2.09-0.46S4.94,4.42,3.96,5.32s-1.49-0.03-2.36,1.9S1.24,9.07,1.27,9.23
	s-1.47,1.88-0.73,2.58s0.73,0.71,0.73,0.71s-0.12,3.61,3.04,2.23c0,0,2.81,1.96,3.97,1.09c1.17-0.87,1.69-1.09,1.93-0.82
	s0.71,1.4,1.98,1.04c1.28-0.36,2.66-0.55,3.29-0.63c0.63-0.08,1.9-0.71,1.9-1.3c0,0,3.94-1.93,0.71-3.53c0,0,1.49-3.45-2.28-2.83
	c0,0-0.87-3.94-3.78-1.33C12.03,6.43,12.14,3.25,8.28,5.32z"/>
</svg>
