<?xml version="1.0" encoding="utf-8"?>
<!-- Generator: Adobe Illustrator 24.0.3, SVG Export Plug-In . SVG Version: 6.00 Build 0)  -->
<svg version="1.1" id="Ebene_1" xmlns="http://www.w3.org/2000/svg" xmlns:xlink="http://www.w3.org/1999/xlink" x="0px" y="0px"
	 viewBox="0 0 20 20" style="enable-background:new 0 0 20 20;" xml:space="preserve">
<style type="text/css">
	.st0{fill:#00FF00;}
</style>
<path class="st0" d="M7.61,3.88c0,0-1.71-2.64-1.82-2.67C5.68,1.18,6.38,4.5,6.49,4.74c0,0-1.25,2.13,1.41,3.86v2.13L6.68,10.1
	l-0.9-1.62l-0.52,1.86l1.21-0.13l1.52,0.91v2.17c0,0-1.03-0.44-1.03-1.31c0,0-0.24,0.89,0.2,1.24c0.21,0.17,0.55,0.28,0.65,0.26
	l-0.16,5.65H5.45v0.17h2.46l0.07-5.75c0,0,1.87,1.59,3.14,0.74l0.29,5.27l2.58-0.08v-0.23l-2.32,0.06l-0.27-5.25l-0.75-3.08
	l2.73-0.47l1,0.03L14.22,7.9l-0.96,2.32l-2.62,0.59l-0.23-2.16c0,0,1.41-2.13,0.2-3.7c0,0,0.87-0.96,0.73-3.42c0,0-2,0.71-2.58,2.4
	C8.75,3.94,8.39,3.77,7.61,3.88z"/>
</svg>
