<svg id="Ebene_1" data-name="Ebene 1" xmlns="http://www.w3.org/2000/svg" viewBox="0 0 18.12 42.79"><defs><style>.cls-1{fill:lime;}</style></defs><title>devil</title><path class="cls-1" d="M11.56,9.84S8.15,3.68,7.94,3.6a74.93,74.93,0,0,0,1.38,8.25s-2.48,5,2.8,9v5L9.71,24.35,7.92,20.56l-1,4.33,2.41-.3,3,2.13v5.06a3.79,3.79,0,0,1-2-3.05s-.48,2.08.4,2.9a2.29,2.29,0,0,0,1.3.61L11.62,45.4H7.27v.39h4.88l.14-13.41S16,36.1,18.52,34.11l.57,12.29,5.13-.18v-.53l-4.6.14-.53-12.25L17.6,26.4,23,25.3l2,.07-.32-6.16-1.91,5.42L17.57,26l-.46-5s2.79-4.95.39-8.63c0,0,1.73-2.23,1.45-8A9.71,9.71,0,0,0,13.82,10,3.81,3.81,0,0,0,11.56,9.84Z" transform="translate(-6.88 -3.6)"/></svg>