<svg id="Ebene_1" data-name="Ebene 1" xmlns="http://www.w3.org/2000/svg" viewBox="0 0 37.66 49.48"><defs><style>.cls-1{fill:#aa2fbc;}</style></defs><title>dinosour1</title><path class="cls-1" d="M33.76,38.74l-1-5.82L25.42,4.35,23.62,1,14.73.28,11.32,1.8l-1.42,2L8.23,4.91,6.31,7.11a2.76,2.76,0,0,0,.54,2.07c.41.67,2.94.39,3.67.35s9.33-.24,9.73-.13.37,7.43.37,7.43l-1.95-.17-1.82.72-.94,1.32-1.31.64.66.06,0,1,.55-1.05.57.69.34-1.54,1.57-1.22,2.14.12,0,2.4-.92.22-2,2.24-1,1.53,1.13-.42-.32.94.49-.53.2.78.61-2.23.05-.1,1-1.09s.85.27,1,.55,2.09,12.93,2.09,12.93S21.43,44.35,21,45.26s-3.08,1.3-4.69,1.6-1.68.86-1.12,1.41,6.83-.06,7.31-.56,2-9.58,2-9.58a3.69,3.69,0,0,0,2,1.53,5.39,5.39,0,0,1,2.34,1.73c-.29,6.69-2.2,5.72-3.5,5.73s-1.79.86-1.57,1.64,6.05.22,6.61-.14-.2-6.54-.2-6.54l1.21,1.61c4.34,5.73,12.58,6.07,12.58,6.07C39.48,48.82,33.76,38.74,33.76,38.74Z" transform="translate(-6.26 -0.28)"/></svg>