<svg id="Ebene_1" data-name="Ebene 1" xmlns="http://www.w3.org/2000/svg" viewBox="0 0 26.4 34.68"><defs><style>.cls-1{fill:#aa2fbc;}</style></defs><title>dinosour</title><path class="cls-1" d="M32.5,36.41l-.73-4.08-5.12-20L25.4,9.94l-6.23-.48-2.39,1.06-1,1.37-1.17.81-1.35,1.54a2,2,0,0,0,.38,1.45c.29.47,2.06.28,2.57.25s6.54-.17,6.83-.09.25,5.2.25,5.2l-1.36-.11-1.28.5-.66.93-.92.44.46.05,0,.7.39-.73.4.48.23-1.07,1.11-.86,1.5.08,0,1.68-.64.15-1.37,1.57-.71,1.08.79-.3L21,26.3l.34-.37.14.55.43-1.56,0-.08.72-.76s.59.19.7.39,1.46,9.06,1.46,9.06-1,6.81-1.26,7.45-2.16.91-3.29,1.12-1.18.6-.78,1,4.78,0,5.12-.39S26,36,26,36a2.61,2.61,0,0,0,1.39,1.07A3.78,3.78,0,0,1,29,38.27c-.21,4.68-1.54,4-2.46,4s-1.25.6-1.1,1.14,4.25.16,4.64-.09S30,38.75,30,38.75l.85,1.13c3,4,8.81,4.26,8.81,4.26C36.51,43.47,32.5,36.41,32.5,36.41Z" transform="translate(-13.22 -9.46)"/></svg>