<svg id="Ebene_1" data-name="Ebene 1" xmlns="http://www.w3.org/2000/svg" viewBox="0 0 40.18 16.17"><defs><style>.cls-1{fill:red;}</style></defs><title>figures</title><polygon class="cls-1" points="8.5 1.61 6.67 0.85 4.87 1.61 0.65 1.94 0 3.21 0.92 4.17 1.96 4.49 1.42 6.18 4.25 9.26 2.96 9.26 1.75 10.67 3.58 14.51 10.61 14.51 13.21 13.32 16.25 15.09 25.13 15.71 26.22 14.59 28.8 16.17 34.82 16.17 36.47 11.38 38.17 11.84 40.18 10 38.83 8.7 40.18 6.64 39.29 5.47 39.64 2.42 37.05 1.61 37.05 0.54 32.51 0.85 30.34 0.85 29.63 5.04 27.26 4.83 27.01 8.98 29.37 9.5 29.37 10.92 25.82 11.38 24.68 8.98 25.01 5.29 26.63 2.54 24.72 1.61 22.8 2.38 22.55 3.21 21.73 3.01 19.63 3.92 19.13 5.47 18.61 6.64 20.09 7.98 18.23 7.86 16.76 9.75 14.17 9.92 12.71 7.98 14.59 7.98 17.51 3.64 15.8 2.81 13.13 3.64 12.71 2.08 11.46 2.25 10.88 0 9.46 0 8.5 1.61"/></svg>