<?xml version="1.0" encoding="utf-8"?>
<!-- Generator: Adobe Illustrator 24.0.3, SVG Export Plug-In . SVG Version: 6.00 Build 0)  -->
<svg version="1.1" id="Ebene_1" xmlns="http://www.w3.org/2000/svg" xmlns:xlink="http://www.w3.org/1999/xlink" x="0px" y="0px"
	 viewBox="0 0 20 20" style="enable-background:new 0 0 20 20;" xml:space="preserve">
<style type="text/css">
	.st0{fill:#FF0000;}
</style>
<polygon class="st0" points="4.44,11.68 3.58,11.32 2.75,11.68 0.78,11.83 0.48,12.42 0.91,12.87 1.39,13.02 1.14,13.8 2.46,15.23 
	1.86,15.23 1.3,15.89 2.15,17.67 5.41,17.67 6.62,17.12 8.04,17.94 12.17,18.23 12.67,17.71 13.87,18.45 16.67,18.45 17.43,16.22 
	18.23,16.43 19.16,15.58 18.53,14.97 19.16,14.02 18.75,13.47 18.91,12.05 17.71,11.68 17.71,11.18 15.59,11.32 14.59,11.32 
	14.26,13.27 13.15,13.18 13.04,15.1 14.14,15.35 14.14,16.01 12.49,16.22 11.95,15.1 12.11,13.39 12.86,12.11 11.97,11.68 
	11.08,12.03 10.96,12.42 10.59,12.33 9.61,12.75 9.38,13.47 9.14,14.02 9.82,14.64 8.95,14.59 8.27,15.46 7.07,15.54 6.39,14.64 
	7.26,14.64 8.62,12.62 7.83,12.24 6.59,12.62 6.39,11.9 5.81,11.98 5.54,10.93 4.88,10.93 "/>
</svg>
