<?xml version="1.0" encoding="utf-8"?>
<!-- Generator: Adobe Illustrator 24.0.3, SVG Export Plug-In . SVG Version: 6.00 Build 0)  -->
<svg version="1.1" id="Ebene_1" xmlns="http://www.w3.org/2000/svg" xmlns:xlink="http://www.w3.org/1999/xlink" x="0px" y="0px"
	 viewBox="0 0 20 20" style="enable-background:new 0 0 20 20;" xml:space="preserve">
<style type="text/css">
	.st0{fill:#1D1D1B;}
</style>
<path class="st0" d="M18.71,13.34c-0.11-0.92-1.39-1.52-2.86-1.33c-1.02,0.13-1.86,0.6-2.24,1.19c-0.4-0.81-1.55-1.37-2.89-1.31
	c-0.9,0.04-1.69,0.35-2.22,0.81c-0.62-0.5-1.7-0.72-2.85-0.51c-0.69,0.13-1.29,0.38-1.76,0.72c0-0.04,0-0.08,0-0.12
	c0-0.63-0.33-1.16-0.78-1.36c0.31-0.23,0.52-0.62,0.52-1.06c0-0.48-0.24-0.89-0.59-1.11c0.23-0.22,0.38-0.56,0.38-0.95
	c0-0.46-0.22-0.86-0.53-1.06C3,7.07,3.08,6.86,3.12,6.62c0.04-0.31-0.01-0.6-0.12-0.83c0.36-0.37,0.47-1.67,0.47-1.67
	C4.05,3.6,5.01,3.64,5.01,3.64c-0.15-0.17-1.51-0.89-2.66,0C1.36,4.4,1.63,5.39,1.72,5.65C1.57,5.83,1.46,6.08,1.42,6.36
	C1.35,6.82,1.49,7.25,1.76,7.48c-0.16,0.21-0.26,0.5-0.26,0.81c0,0.39,0.15,0.73,0.38,0.95c-0.35,0.22-0.59,0.63-0.59,1.11
	c0,0.56,0.33,1.04,0.8,1.21c-0.32,0.26-0.54,0.7-0.54,1.21c0,0.8,0.52,1.44,1.17,1.44c0.07,0,0.14-0.01,0.21-0.02
	c-0.03,0.15-0.03,0.31-0.01,0.46c0.09,0.54,0.52,0.96,1.15,1.2c-0.11,0.65-0.57,3.5-0.44,3.31c0.13-0.19,0.66-2.66,0.77-3.2
	c0.55,0.15,1.22,0.18,1.91,0.05c0.28-0.05,0.54-0.12,0.79-0.21l0.44,2.9c0,0,0.19,0.23,0.15-0.26c-0.03-0.4-0.11-2.16-0.14-2.83
	c0.3-0.15,0.57-0.33,0.79-0.53c0.37,0.37,0.91,0.64,1.55,0.77c0.03,0.61,0.13,3.13,0.18,2.72c0.04-0.37,0.02-2.05,0.01-2.69
	c0.26,0.04,0.53,0.05,0.81,0.04c0.42-0.02,0.81-0.1,1.17-0.22c0.04,0.61,0.18,2.46,0.27,2.34c0.1-0.14,0.19-1.94,0.22-2.54
	c0.48-0.25,0.84-0.59,1.05-0.98c0.26,0.38,0.76,0.66,1.38,0.79c-0.08,0.49-0.49,2.99-0.33,2.74c0.14-0.23,0.51-2.09,0.63-2.7
	c0.31,0.04,0.64,0.04,0.99-0.01c0.3-0.04,0.59-0.11,0.85-0.2c0.04,0.61,0.2,2.6,0.32,2.37c0.13-0.24,0.03-2.04,0.01-2.5
	C18.26,14.63,18.79,13.99,18.71,13.34z"/>
</svg>
