<svg id="Ebene_1" data-name="Ebene 1" xmlns="http://www.w3.org/2000/svg" viewBox="0 0 40.95 36.43"><defs><style>.cls-1{fill:#1d1d1b;}</style></defs><title>intro</title><path class="cls-1" d="M46.12,33.14c-.26-2.11-3.27-3.47-6.72-3a7.53,7.53,0,0,0-5.27,2.71c-1-1.85-3.65-3.12-6.79-3a8.77,8.77,0,0,0-5.21,1.84,8.76,8.76,0,0,0-6.7-1.17,10.65,10.65,0,0,0-4.15,1.64,2.44,2.44,0,0,0,0-.27,3.3,3.3,0,0,0-1.83-3.11,3,3,0,0,0-.17-5,2.87,2.87,0,0,0,.9-2.15,2.81,2.81,0,0,0-1.25-2.42,3.08,3.08,0,0,0,.54-1.38,3.13,3.13,0,0,0-.28-1.9c.85-.84,1.1-3.8,1.1-3.8A5.93,5.93,0,0,1,13.94,11a5.49,5.49,0,0,0-6.26,0,3.85,3.85,0,0,0-1.46,4.59,3.15,3.15,0,0,0-.73,1.62,2.77,2.77,0,0,0,.8,2.54,3,3,0,0,0-.62,1.86,2.88,2.88,0,0,0,.91,2.15,3,3,0,0,0-1.39,2.54,2.9,2.9,0,0,0,1.87,2.76A3.49,3.49,0,0,0,5.8,31.86a3.05,3.05,0,0,0,2.75,3.29,2.63,2.63,0,0,0,.49,0,2.65,2.65,0,0,0,0,1,3.86,3.86,0,0,0,2.69,2.75c-.25,1.48-1.34,8-1,7.54s1.55-6.06,1.82-7.29a10.75,10.75,0,0,0,4.48.12,12.07,12.07,0,0,0,1.86-.49l1,6.61s.43.52.34-.6c-.08-.9-.25-4.93-.32-6.45a8.7,8.7,0,0,0,1.87-1.2,7.12,7.12,0,0,0,3.63,1.75c.06,1.39.32,7.15.42,6.22s0-4.67,0-6.14a10.88,10.88,0,0,0,1.91.09,9.87,9.87,0,0,0,2.74-.5c.1,1.39.42,5.62.63,5.33a43.71,43.71,0,0,0,.51-5.8,5.58,5.58,0,0,0,2.46-2.24,5.19,5.19,0,0,0,3.25,1.8c-.18,1.12-1.14,6.83-.77,6.25A49.54,49.54,0,0,0,38,37.76a10,10,0,0,0,2.32,0,10.26,10.26,0,0,0,2-.46c.1,1.38.46,5.93.75,5.4s.07-4.65,0-5.7C45.07,36.09,46.3,34.63,46.12,33.14Z" transform="translate(-5.19 -10.03)"/></svg>