<svg id="Ebene_1" data-name="Ebene 1" xmlns="http://www.w3.org/2000/svg" viewBox="0 0 22.51 25.48"><defs><style>.cls-1{fill:lime;}</style></defs><title>knowledgeisgod</title><polygon class="cls-1" points="6.05 0.42 0 2.97 0 5.57 1.72 7.31 5.17 7.07 3.03 14.2 0.73 15.23 0.73 16.64 3.79 19.25 3.59 20.2 2.61 20.2 2.33 21.8 4.94 22.45 5.82 19.31 7.13 19.25 7.07 21.62 9.11 21.62 9.37 18.01 14.02 18.01 13.54 22.87 11.36 22.87 11.21 25.25 15.73 25.25 16.02 19.43 17.26 19.6 17.26 25.25 20.43 25.48 20.43 22.93 18.95 22.93 18.89 18.48 20.02 16.87 18.24 14.18 19.43 13.87 21.68 14.52 22.51 10.65 21.39 8.49 19.66 11.7 17.99 11.94 18.24 10.77 17.99 6.75 18.89 3.45 18.3 0 16.35 2.03 14.92 4.32 13.17 0.83 9.1 0 6.05 0.42"/></svg>