<svg id="Ebene_1" data-name="Ebene 1" xmlns="http://www.w3.org/2000/svg" viewBox="0 0 33.23 14.18"><defs><style>.cls-1{fill:blue;}</style></defs><title>manifestation</title><path class="cls-1" d="M18.33,20.46s-2.18-2.22-4.58-2.13c-1.49.05-5.71,3.26-3.46,6.88s5.55,3.13,6.76,2.17c0,0,.24,4.59,1.08,4.5s2.5.81,1.65-5.87l1.77-.24s.81,6.11,1.57,5.95,1.45-3.58,1.05-5.95c0,0,2.17-.12,2.37.32s-.16,4.55.6,4.39,1.25-.2,1.29-4.11l2.49,0s-.24,3.87,1,3.74,1.29-1.2,1.33-3.74c0,0,2.17-1,2.29-1s1.61,1,2.62.84S43,23,42.87,19.86s-4.78-1.25-5.59-.61a14.33,14.33,0,0,0-2,2.66s-1.05-.52-1.45-.32c0,0,0-3.78-.56-3.87s-1.45-.08-2.13,4.07a2,2,0,0,1-1.49.32s-.08-2.94-.49-3.18-1-.92-1.72,1.29l-.77,2.21-1.73-.8s.4-3.1,0-3.22-1.13-.56-1.57.48a21.17,21.17,0,0,0-.76,2.21l-1.25.2s.56-2.33,0-2.57-1.45-.28-1.61.28a16.76,16.76,0,0,0-.28,2h-.6Z" transform="translate(-9.64 -17.71)"/></svg>