<svg id="Ebene_1" data-name="Ebene 1" xmlns="http://www.w3.org/2000/svg" viewBox="0 0 50 50"><defs><style>.cls-1{fill:blue;}</style></defs><title>manifestation</title><path class="cls-1" d="M17.84,20.78s-2.18-2.22-4.59-2.13c-1.48.05-5.71,3.26-3.46,6.88s5.56,3.14,6.76,2.17c0,0,.24,4.59,1.09,4.51s2.49.8,1.65-5.88l1.77-.24s.8,6.12,1.57,5.95,1.44-3.58,1-5.95c0,0,2.17-.12,2.38.32s-.17,4.55.6,4.39,1.25-.2,1.29-4.11l2.49,0s-.24,3.87,1,3.75,1.28-1.21,1.32-3.75c0,0,2.18-1,2.3-1s1.61,1,2.61.84,4.83-3.09,4.75-6.27-4.79-1.25-5.59-.61a13.87,13.87,0,0,0-2,2.66s-1.05-.52-1.45-.32c0,0,0-3.78-.57-3.86s-1.44-.09-2.13,4.06a2,2,0,0,1-1.49.32s-.08-2.94-.48-3.18-1-.92-1.73,1.29l-.76,2.21L24.44,22s.4-3.1,0-3.22-1.13-.56-1.57.48a22.63,22.63,0,0,0-.77,2.21l-1.24.21s.56-2.34,0-2.58-1.45-.28-1.61.28a16.76,16.76,0,0,0-.28,2.05h-.61Z"/></svg>