<?xml version="1.0" encoding="utf-8"?>
<!-- Generator: Adobe Illustrator 24.0.3, SVG Export Plug-In . SVG Version: 6.00 Build 0)  -->
<svg version="1.1" id="Ebene_1" xmlns="http://www.w3.org/2000/svg" xmlns:xlink="http://www.w3.org/1999/xlink" x="0px" y="0px"
	 viewBox="0 0 20 20" style="enable-background:new 0 0 20 20;" xml:space="preserve">
<style type="text/css">
	.st0{fill:#00FF00;}
</style>
<polygon class="st0" points="6.01,0.55 1.37,2.51 1.37,4.5 2.69,5.83 5.33,5.65 3.69,11.12 1.93,11.91 1.93,12.99 4.28,14.99 
	4.12,15.71 3.37,15.71 3.16,16.94 5.16,17.45 5.83,15.03 6.83,14.99 6.79,16.81 8.36,16.81 8.56,14.03 12.12,14.03 11.75,17.76 
	10.08,17.76 9.96,19.59 13.43,19.59 13.65,15.12 14.6,15.26 14.6,19.59 17.04,19.77 17.04,17.81 15.9,17.81 15.85,14.39 
	16.72,13.16 15.35,11.1 16.26,10.86 17.99,11.36 18.63,8.4 17.76,6.74 16.44,9.2 15.16,9.39 15.35,8.49 15.16,5.41 15.85,2.88 
	15.4,0.23 13.91,1.79 12.81,3.55 11.47,0.87 8.35,0.23 "/>
</svg>
