<svg id="Ebene_1" data-name="Ebene 1" xmlns="http://www.w3.org/2000/svg" viewBox="0 0 21.44 40"><defs><style>.cls-1{fill:blue;}</style></defs><title>shapes</title><polygon class="cls-1" points="10.81 0 5.82 0 5.53 8.99 8.37 8.99 7.86 12.76 4.18 10.08 2.78 10.45 3.01 11.88 5.2 14.63 4.56 15.55 7.24 18.03 7.31 21.71 4.75 21.9 1.85 19.38 1.85 21.9 0 24.17 1.36 24.68 0.49 26.24 1.09 26.88 6.41 25.56 4.9 32.31 4.79 36.08 2.75 36.87 2.83 40 8.04 39.65 8.29 33.59 9.53 33.59 9.3 39.65 14.24 39.65 13.57 37.24 12.55 36.68 13.15 32.38 12.77 31.71 13.19 24.68 15.41 24.68 15.83 25.86 16.05 28.28 18.16 28.2 18.5 26.24 19.56 26.66 20.24 25.98 19.41 23.6 21.44 22.17 20.01 20.29 17.67 20.29 15.9 21.23 12.24 21.12 12.47 17.76 14.21 16.75 14.21 15.55 15.04 15.55 17.37 11.21 16.32 10.64 12.81 12.76 12.96 10.45 15.83 9.7 15.79 3.86 11.09 4.16 13 0 10.81 0"/></svg>