<?xml version="1.0" encoding="utf-8"?>
<!-- Generator: Adobe Illustrator 24.0.3, SVG Export Plug-In . SVG Version: 6.00 Build 0)  -->
<svg version="1.1" id="Ebene_1" xmlns="http://www.w3.org/2000/svg" xmlns:xlink="http://www.w3.org/1999/xlink" x="0px" y="0px"
	 viewBox="0 0 20 20" style="enable-background:new 0 0 20 20;" xml:space="preserve">
<style type="text/css">
	.st0{fill:#0000FF;}
</style>
<polygon class="st0" points="10.36,0.36 7.96,0.36 7.82,4.69 9.19,4.69 8.94,6.51 7.17,5.22 6.49,5.4 6.6,6.09 7.66,7.41 7.35,7.85 
	8.64,9.05 8.67,10.83 7.44,10.92 6.04,9.7 6.04,10.92 5.15,12.01 5.81,12.25 5.39,13.01 5.68,13.32 8.24,12.68 7.51,15.93 
	7.46,17.75 6.48,18.13 6.51,19.64 9.02,19.47 9.14,16.55 9.75,16.55 9.64,19.47 12.02,19.47 11.69,18.31 11.2,18.04 11.49,15.97 
	11.31,15.64 11.51,12.25 12.58,12.25 12.78,12.83 12.89,13.99 13.91,13.95 14.07,13.01 14.58,13.21 14.9,12.88 14.51,11.74 
	15.49,11.05 14.8,10.14 13.67,10.14 12.82,10.59 11.05,10.54 11.16,8.92 12,8.43 12,7.85 12.4,7.85 13.52,5.76 13.02,5.49 
	11.33,6.51 11.4,5.4 12.78,5.04 12.76,2.22 10.49,2.37 11.42,0.36 "/>
</svg>
