<svg id="Ebene_1" data-name="Ebene 1" xmlns="http://www.w3.org/2000/svg" viewBox="0 0 92.19 120.32"><defs><style>.cls-1{fill:blue;}.cls-2{fill:lime;}</style></defs><title>thisappknows</title><polygon class="cls-1" points="67.5 3.98 67.5 6.36 66.42 6.88 66.42 25.6 72.75 25.6 72.75 12.15 74.6 11.04 80.47 11.04 80.47 8.43 92.19 8.77 92.19 1.93 72.05 1.93 70.89 3.21 67.5 3.14 67.5 3.98"/><polygon class="cls-2" points="0 89.91 1.53 99.22 8.25 100.75 12.95 111.4 18.04 110.25 25.81 120.32 25.81 112.07 23.98 107.28 21.68 107.66 18.42 98.93 14.68 99.02 10.17 84.97 0 89.91"/><path class="cls-2" d="M57.89,75.15h-4a2.28,2.28,0,0,0-3.4.76s-1.92-1.73-3.71-.39S43.21,80,47.92,87c0,0-.5,14.42-.81,15.4a4,4,0,0,1-2.61,3.16c-2,.66-4.43,1.17-4.43,1.17v2l3.46-.83a6.09,6.09,0,0,0,2-.85l1.25-.83a4.68,4.68,0,0,0,2.05-3,70.76,70.76,0,0,0,1.24-8.34,76.32,76.32,0,0,1,.89-7.75s3.77-5.31,3.49-8.86l0-.22s3.88-.34,4-.61a4.76,4.76,0,0,1,.36-.73l1,.07-.18-.22.38-.12-1.26-.13-.18-1.06Z" transform="translate(0 -3.6)"/><path class="cls-2" d="M8.52,9.84S5.12,3.68,4.9,3.6a72.84,72.84,0,0,0,1.39,8.25s-2.48,5,2.79,9v5L6.67,24.35,4.88,20.56l-1,4.33,2.41-.3,3,2.13v5.06a3.79,3.79,0,0,1-2-3.05s-.49,2.08.4,2.9a2.3,2.3,0,0,0,1.29.61L8.59,45.4H4.23v.39H9.12l.14-13.41S13,36.1,15.49,34.11l.56,12.29,5.14-.18v-.53l-4.61.14-.53-12.25L14.57,26.4,20,25.3l2,.07-.31-6.16-1.92,5.42L14.53,26l-.46-5s2.8-4.95.39-8.63c0,0,1.74-2.23,1.45-8A9.74,9.74,0,0,0,10.78,10,3.78,3.78,0,0,0,8.52,9.84Z" transform="translate(0 -3.6)"/></svg>