<?xml version="1.0" encoding="utf-8"?>
<!-- Generator: Adobe Illustrator 24.0.3, SVG Export Plug-In . SVG Version: 6.00 Build 0)  -->
<svg version="1.1" id="Ebene_1" xmlns="http://www.w3.org/2000/svg" xmlns:xlink="http://www.w3.org/1999/xlink" x="0px" y="0px"
	 viewBox="0 0 20 20" style="enable-background:new 0 0 20 20;" xml:space="preserve">
<style type="text/css">
	.st0{fill:#0000FF;}
</style>
<path class="st0" d="M5.28,12.99c0,0-1.27-1.29-2.66-1.24c-0.86,0.03-3.31,1.89-2.01,3.99S3.83,17.56,4.53,17
	c0,0,0.14,2.66,0.63,2.61s1.45,0.47,0.96-3.41l1.03-0.14c0,0,0.47,3.55,0.91,3.45c0.44-0.09,0.84-2.08,0.61-3.45
	c0,0,1.26-0.07,1.38,0.19c0.12,0.26-0.09,2.64,0.35,2.54c0.44-0.09,0.72-0.12,0.75-2.38l1.45-0.02c0,0-0.14,2.24,0.56,2.17
	c0.7-0.07,0.75-0.7,0.77-2.17c0,0,1.26-0.56,1.33-0.61c0.07-0.05,0.93,0.56,1.52,0.49s2.8-1.79,2.75-3.64
	c-0.05-1.85-2.78-0.72-3.24-0.35c-0.47,0.37-1.17,1.54-1.17,1.54s-0.61-0.3-0.84-0.19c0,0,0.02-2.19-0.33-2.24
	c-0.35-0.05-0.84-0.05-1.24,2.36c0,0-0.23,0.23-0.86,0.19c0,0-0.05-1.7-0.28-1.84c-0.23-0.14-0.56-0.54-1,0.75
	c-0.44,1.28-0.44,1.28-0.44,1.28l-1-0.47c0,0,0.23-1.8,0-1.87s-0.65-0.33-0.91,0.28c-0.26,0.61-0.44,1.28-0.44,1.28l-0.72,0.12
	c0,0,0.33-1.35-0.02-1.49c-0.35-0.14-0.84-0.16-0.93,0.16c-0.09,0.33-0.16,1.19-0.16,1.19H5.56L5.28,12.99z"/>
</svg>
