<svg id="Ebene_1" data-name="Ebene 1" xmlns="http://www.w3.org/2000/svg" viewBox="0 0 33.23 14.18"><defs><style>.cls-1{fill:blue;}</style></defs><title>worm</title><path class="cls-1" d="M10.91,20s-2.18-2.22-4.58-2.13c-1.49.05-5.72,3.25-3.46,6.87s5.55,3.14,6.76,2.18c0,0,.24,4.58,1.08,4.5s2.5.81,1.65-5.87l1.77-.24s.8,6.11,1.57,5.95,1.45-3.58,1.05-5.95c0,0,2.17-.12,2.37.32s-.16,4.55.6,4.38S21,29.8,21,25.9l2.49,0s-.24,3.86,1,3.74,1.29-1.2,1.33-3.74c0,0,2.17-1,2.29-1s1.61,1,2.61.84,4.83-3.09,4.75-6.28-4.79-1.24-5.59-.6a13.56,13.56,0,0,0-2,2.66s-1.05-.53-1.45-.33c0,0,0-3.78-.56-3.86s-1.45-.08-2.14,4.07a1.93,1.93,0,0,1-1.48.32s-.08-2.94-.49-3.18-1-.93-1.73,1.29L19.24,22l-1.73-.81s.4-3.09,0-3.21-1.13-.57-1.57.48a20.34,20.34,0,0,0-.76,2.21l-1.25.2s.56-2.33,0-2.57-1.45-.28-1.61.28A16.51,16.51,0,0,0,12,20.59h-.6Z" transform="translate(-2.22 -17.23)"/></svg>